<svg xmlns="http://www.w3.org/2000/svg" width="100" height="100" viewBox="0 0 100 100"><rect width="100%" height="100%" fill="#4caf50"/><path fill="#fff" d="M20.99 48.68v3.68q.33.41.73.58t.86.17q.45 0 .81-.17t.61-.51q.25-.35.39-.87.13-.53.13-1.24 0-.72-.11-1.22-.12-.5-.33-.81-.22-.31-.53-.46-.31-.14-.7-.14-.61 0-1.05.26-.43.26-.81.73m-.27-2.04.16.76q.51-.57 1.15-.92t1.5-.35q.67 0 1.23.28t.96.81.62 1.31.22 1.79q0 .92-.24 1.71-.25.78-.71 1.36-.46.57-1.11.9-.66.32-1.46.32-.69 0-1.18-.21t-.87-.59v3.36h-1.98V46.28h1.21q.38 0 .5.36m9.12.14.12.93q.39-.74.92-1.16.52-.42 1.24-.42.57 0 .92.25l-.13 1.48q-.04.14-.12.2-.07.06-.2.06-.12 0-.36-.04-.23-.04-.46-.04-.33 0-.58.1-.26.09-.46.27-.21.18-.36.44-.16.26-.29.58v5.06H28.1v-8.21h1.16q.3 0 .42.11t.16.39m7.86-.63q.91 0 1.66.3t1.28.84.82 1.33q.29.78.29 1.75 0 .98-.29 1.76t-.82 1.34q-.53.55-1.28.84-.75.3-1.66.3-.92 0-1.67-.3-.75-.29-1.29-.84-.53-.56-.82-1.34t-.29-1.76q0-.97.29-1.75.29-.79.82-1.33.54-.54 1.29-.84t1.67-.3m0 6.94q1.02 0 1.52-.69.49-.69.49-2.01 0-1.33-.49-2.03-.5-.69-1.52-.69-1.04 0-1.54.7t-.5 2.02.5 2.01 1.54.69m5.62-6.81h1.99v8.49q0 .54-.14 1.01t-.45.83q-.31.35-.81.56-.5.2-1.22.2-.28 0-.52-.04-.24-.03-.49-.11l.07-1.07q.02-.16.13-.2.1-.04.4-.04.29 0 .5-.06.2-.06.32-.2.12-.13.17-.34.05-.22.05-.54zm2.26-2.39q0 .26-.1.48-.11.22-.28.39t-.41.27q-.23.1-.5.1-.25 0-.48-.1-.22-.1-.39-.27t-.27-.39-.1-.48.1-.5q.1-.23.27-.4.17-.16.39-.26.23-.1.48-.1.27 0 .5.1.24.1.41.26.17.17.28.4.1.24.1.5m3.3 5.55h3.73q0-.38-.11-.72-.1-.34-.32-.6-.22-.25-.55-.4t-.77-.15q-.86 0-1.35.49t-.63 1.38m5.04 1.19h-5.08q.05.64.23 1.1.17.46.46.76t.69.44q.39.15.87.15t.83-.11.61-.25q.26-.13.45-.25.2-.11.38-.11.25 0 .37.19l.57.72q-.33.38-.74.64-.4.26-.85.42-.44.15-.9.22-.46.06-.89.06-.86 0-1.6-.28-.73-.29-1.28-.84-.54-.56-.85-1.38t-.31-1.9q0-.84.27-1.58t.78-1.29 1.24-.87 1.65-.32q.78 0 1.43.25.66.25 1.13.73.47.47.74 1.16.27.7.27 1.58 0 .45-.1.61-.09.15-.37.15m8.35-3.33-.52.72q-.09.11-.17.17-.09.07-.25.07-.15 0-.29-.09-.15-.1-.35-.21-.2-.12-.47-.21-.28-.09-.69-.09-.52 0-.91.19-.39.18-.65.54-.26.35-.39.85t-.13 1.13q0 .66.14 1.17t.41.86q.26.35.64.53.37.18.84.18.48 0 .77-.12t.49-.26.35-.25q.15-.12.33-.12.24 0 .36.19l.57.72q-.33.38-.71.64-.39.26-.8.42-.41.15-.85.22-.43.06-.87.06-.76 0-1.43-.28-.67-.29-1.17-.83-.51-.55-.8-1.33-.29-.79-.29-1.8 0-.9.26-1.68.26-.77.76-1.33.51-.57 1.25-.89t1.71-.32q.92 0 1.61.3.7.3 1.25.85m4.05 7.32q-1.08 0-1.65-.61-.57-.6-.57-1.66v-4.59h-.84q-.16 0-.27-.1-.11-.11-.11-.31v-.79l1.32-.21.41-2.24q.04-.16.15-.25.12-.09.29-.09h1.03v2.58h2.19v1.41h-2.19v4.45q0 .38.18.6.19.22.52.22.18 0 .31-.05.12-.04.21-.09.1-.05.17-.09.07-.05.14-.05.09 0 .15.05.05.04.12.13l.59.96q-.43.36-.99.54-.56.19-1.16.19m11-1.97h2.97q.32 0 .51.18t.19.48v1.18h-7.94v-.66q0-.2.09-.42.08-.22.26-.39l3.52-3.52q.44-.45.78-.86.35-.41.58-.81.24-.4.36-.81t.12-.87q0-.41-.12-.73-.12-.31-.34-.53t-.52-.32q-.31-.11-.7-.11-.35 0-.65.1t-.53.28-.39.42-.24.53q-.14.36-.35.48-.22.12-.63.06l-1.04-.18q.12-.84.47-1.46.34-.63.86-1.05.51-.42 1.18-.63.67-.22 1.44-.22.8 0 1.46.24t1.14.67q.47.43.73 1.04.27.61.27 1.35 0 .64-.19 1.18-.19.55-.51 1.04-.31.5-.74.96-.42.47-.88.95l-2.61 2.66q.37-.11.75-.17.37-.06.7-.06"/></svg>